<svg width="1165" height="178" viewBox="0 0 1165 178" fill="none" xmlns="http://www.w3.org/2000/svg">
<path d="M104.79 87.9205C114.817 90.0594 122.871 95.0775 128.953 102.975C135.035 110.708 138.076 119.592 138.076 129.629C138.076 144.107 132.981 155.624 122.789 164.18C112.762 172.571 98.7081 176.766 80.6267 176.766H0V3.51732H77.9145C95.5027 3.51732 109.228 7.54827 119.091 15.6102C129.118 23.6721 134.131 34.6132 134.131 48.4336C134.131 58.6344 131.419 67.1076 125.995 73.8533C120.735 80.599 113.666 85.2881 104.79 87.9205ZM42.1626 73.6065H69.7778C76.6816 73.6065 81.9417 72.1258 85.558 69.1643C89.3386 66.0382 91.2289 61.5137 91.2289 55.5906C91.2289 49.6676 89.3386 45.1431 85.558 42.017C81.9417 38.891 76.6816 37.328 69.7778 37.328H42.1626V73.6065ZM73.2297 142.709C80.2979 142.709 85.7224 141.146 89.503 138.02C93.448 134.729 95.4205 130.04 95.4205 123.952C95.4205 117.865 93.3658 113.093 89.2564 109.638C85.3114 106.183 79.8048 104.456 72.7366 104.456H42.1626V142.709H73.2297Z" fill="white"/>
<path d="M424.12 176.766L388.861 123.705L357.794 176.766H309.96L365.437 88.6609L308.727 3.51732H357.794L392.559 55.8374L423.133 3.51732H470.967L415.983 90.882L473.186 176.766H424.12Z" fill="white"/>
<path d="M536.515 144.189H591.745V176.766H494.352V3.51732H536.515V144.189Z" fill="white"/>
<path d="M719.604 146.164H655.004L644.649 176.766H600.514L663.141 3.51732H711.961L774.588 176.766H729.96L719.604 146.164ZM708.756 113.587L687.304 50.1612L666.1 113.587H708.756Z" fill="white"/>
<path d="M948.492 176.766H906.329L835.811 69.9046V176.766H793.649V3.51732H835.811L906.329 110.872V3.51732H948.492V176.766Z" fill="white"/>
<path d="M1093.95 58.3054C1090.83 52.5469 1086.31 48.1868 1080.39 45.2253C1074.64 42.0993 1067.82 40.5363 1059.93 40.5363C1046.28 40.5363 1035.35 45.0608 1027.13 54.1099C1018.92 62.9944 1014.81 74.9228 1014.81 89.8949C1014.81 105.854 1019.08 118.358 1027.63 127.407C1036.34 136.292 1048.26 140.734 1063.38 140.734C1073.73 140.734 1082.45 138.102 1089.51 132.837C1096.75 127.572 1102.01 120.004 1105.3 110.132H1051.79V79.036H1143.51V118.276C1140.39 128.806 1135.05 138.595 1127.49 147.644C1120.09 156.694 1110.64 164.015 1099.13 169.609C1087.62 175.203 1074.64 178 1060.17 178C1043.08 178 1027.79 174.298 1014.31 166.894C1001 159.326 990.56 148.878 982.999 135.552C975.602 122.225 971.904 107.006 971.904 89.8949C971.904 72.7839 975.602 57.565 982.999 44.2382C990.56 30.7468 1001 20.2992 1014.31 12.8954C1027.63 5.32713 1042.83 1.54297 1059.93 1.54297C1080.64 1.54297 1098.06 6.56109 1112.2 16.5973C1126.5 26.6336 1135.95 40.5363 1140.55 58.3054H1093.95Z" fill="white"/>
<path d="M210.698 26.7289L226.856 13.3248L226.872 13.3086L226.905 13.3328C227.477 13.4217 228.041 13.5106 228.613 13.6156C263.324 20.451 285.799 53.836 278.877 88.0936C272.028 122.06 238.854 144.166 204.568 137.953C211.965 136.297 219.075 132.936 225.287 127.789C246.103 110.515 248.825 79.8282 231.351 59.2493C221.339 47.4531 206.865 41.5469 192.415 41.8943L210.706 26.7208L210.698 26.7289Z" fill="url(#paint0_linear_700_167)"/>
<path d="M155.216 148.874C151.994 144.811 152.498 138.745 156.335 135.332C160.171 131.919 165.897 132.453 169.119 136.517C172.341 140.58 171.837 146.646 168.001 150.059C164.164 153.472 158.438 152.938 155.216 148.874Z" fill="url(#paint1_linear_700_167)"/>
<path d="M245.805 175.678C216.406 181.432 187.485 172.785 166.706 154.744C167.919 154.237 169.082 153.562 170.138 152.686C172.315 150.902 173.784 148.604 174.501 146.129C179.055 148.676 183.864 150.846 188.929 152.534C232.186 167.023 279.263 144.578 294.087 102.445C308.96 60.3031 285.92 14.4409 242.671 0C280.336 6.04317 310.189 34.1294 317.637 70.5251C327.602 118.895 295.456 165.954 245.805 175.67V175.678Z" fill="url(#paint2_linear_700_167)"/>
<path d="M1155.57 0C1158.01 0 1160.28 0.906609 1161.89 2.63663C1162.68 3.41847 1163.3 4.40823 1163.75 5.48117C1164.62 7.66449 1164.62 10.0973 1163.75 12.2391C1163.34 13.312 1162.68 14.3018 1161.81 15.0836C1160.94 15.9486 1160.03 16.5683 1158.87 17.0216C1157.8 17.4333 1156.69 17.6828 1155.53 17.6828C1154.37 17.6828 1153.17 17.4749 1152.09 16.9842C1151.02 16.4934 1150.03 15.828 1149.16 15.0046C1147.51 13.3578 1146.6 11.1703 1146.6 8.90378C1146.6 6.63728 1146.68 7.33596 1146.89 6.55413C1147.09 5.77229 1147.47 4.98629 1147.79 4.3708C1149.57 1.65101 1152.47 0 1155.56 0M1155.61 1.48466C1154.7 1.48466 1153.67 1.60942 1152.84 1.97955C1151.98 2.34967 1151.19 2.84454 1150.49 3.54736C1149.78 4.25018 1149.21 5.11521 1148.84 5.98022C1147.68 8.65843 1148.26 11.8731 1150.41 13.9358C1151.11 14.6345 1151.9 15.2125 1152.85 15.5827C1153.72 15.9528 1154.71 16.1607 1155.7 16.1607C1156.69 16.1607 1157.64 15.9528 1158.47 15.5827C1159.38 15.2125 1160.16 14.6761 1160.91 14.0148C1161.66 13.3536 1162.11 12.6134 1162.48 11.6652C1162.85 10.8002 1163.06 9.89355 1163.06 8.90378C1163.06 7.91401 1162.94 6.92424 1162.48 5.97606C1162.11 5.06946 1161.57 4.28761 1160.91 3.62638C1160.21 2.92772 1159.42 2.34967 1158.47 1.97955C1157.56 1.73418 1156.57 1.48466 1155.62 1.48466M1151.94 3.79274H1155.78C1156.86 3.70956 1157.97 3.9175 1158.92 4.4914C1159.62 4.98628 1160 5.76813 1160 6.63314C1160 7.49815 1159.79 7.82667 1159.42 8.27997C1159 8.77486 1158.42 9.06183 1157.84 9.18659L1160.03 13.5948H1157.39L1155.53 9.63988H1154.33V13.678H1151.98V3.78441H1151.94V3.79274ZM1154.29 5.36058V8.20512H1155.49C1155.98 8.28829 1156.56 8.12196 1157.06 7.83501C1157.43 7.62708 1157.56 7.17377 1157.56 6.76206C1157.56 6.35035 1157.43 5.89704 1157.06 5.60593C1156.56 5.31898 1155.98 5.19424 1155.41 5.23582L1154.29 5.36058Z" fill="#303446"/>
<defs>
<linearGradient id="paint0_linear_700_167" x1="192.415" y1="76.1534" x2="280.129" y2="76.1534" gradientUnits="userSpaceOnUse">
<stop stop-color="#00DBFF"/>
<stop offset="1" stop-color="#00FF75"/>
</linearGradient>
<linearGradient id="paint1_linear_700_167" x1="153.094" y1="142.696" x2="171.241" y2="142.696" gradientUnits="userSpaceOnUse">
<stop stop-color="#00DBFF"/>
<stop offset="1" stop-color="#00FF75"/>
</linearGradient>
<linearGradient id="paint2_linear_700_167" x1="166.706" y1="88.7221" x2="319.449" y2="88.7221" gradientUnits="userSpaceOnUse">
<stop stop-color="#00DBFF"/>
<stop offset="1" stop-color="#00FF75"/>
</linearGradient>
</defs>
</svg>
